<?xml version="1.0" encoding="UTF-8" standalone="no"?>
<!-- Created with Inkscape (http://www.inkscape.org/) -->

<svg
   xmlns:dc="http://purl.org/dc/elements/1.1/"
   xmlns:cc="http://creativecommons.org/ns#"
   xmlns:rdf="http://www.w3.org/1999/02/22-rdf-syntax-ns#"
   xmlns:svg="http://www.w3.org/2000/svg"
   xmlns="http://www.w3.org/2000/svg"
   xmlns:sodipodi="http://sodipodi.sourceforge.net/DTD/sodipodi-0.dtd"
   xmlns:inkscape="http://www.inkscape.org/namespaces/inkscape"
   width="744.09448819"
   height="1052.3622047"
   id="svg4811"
   version="1.1"
   inkscape:version="0.48.5 r10040"
   sodipodi:docname="owl3.svg">
  <defs
     id="defs4813" />
  <sodipodi:namedview
     id="base"
     pagecolor="#ffffff"
     bordercolor="#666666"
     borderopacity="1.0"
     inkscape:pageopacity="0.0"
     inkscape:pageshadow="2"
     inkscape:zoom="0.9899495"
     inkscape:cx="579.24605"
     inkscape:cy="493.71513"
     inkscape:document-units="px"
     inkscape:current-layer="layer1"
     showgrid="false"
     inkscape:window-width="1364"
     inkscape:window-height="747"
     inkscape:window-x="0"
     inkscape:window-y="19"
     inkscape:window-maximized="0" />
  <metadata
     id="metadata4816">
    <rdf:RDF>
      <cc:Work
         rdf:about="">
        <dc:format>image/svg+xml</dc:format>
        <dc:type
           rdf:resource="http://purl.org/dc/dcmitype/StillImage" />
        <dc:title />
      </cc:Work>
    </rdf:RDF>
  </metadata>
  <g
     inkscape:label="Layer 1"
     inkscape:groupmode="layer"
     id="layer1">
    <path
       style="fill:#000000;stroke-width:0.2;stroke-miterlimit:4;stroke-dasharray:none"
       id="path4829"
       d="m 349.26169,665.50927 c -20.82099,0.44869 -41.64722,0.5987 -62.47165,0.82104 -10.60087,0.13893 -21.2017,0.28302 -31.80236,0.43749 -4.32708,0.0631 -9.58131,0.94938 -13.52829,-1.82796 -1.82227,-1.28227 -2.77222,-3.48916 -4.15834,-5.23375 -0.62768,-2.91513 -1.63726,-5.7736 -1.88303,-8.7454 -0.63001,-7.61772 0.4008,-32.55448 0.56471,-37.86584 0.91067,-29.51022 1.6048,-59.01119 2.13168,-88.53092 0.55341,-32.92319 -0.69239,-66.06994 3.46848,-98.81976 0.79522,-1.68216 0.85801,-3.98426 2.38566,-5.04648 9.69449,-6.74086 19.76826,-13.1336 30.58153,-17.87656 3.77955,-1.6578 8.21995,-0.81428 12.3448,-0.95195 7.28621,-0.2432 14.57971,-0.19553 21.86997,-0.19003 4.72238,0.004 69.03674,0.53184 69.87935,0.53863 59.86119,0.50094 119.72433,0.20393 179.58242,-0.47898 4.13803,-0.0622 17.19603,-1.4213 21.46478,2.4468 9.38744,8.50638 10.19669,28.60154 11.20683,38.17313 2.15779,20.44633 3.52161,60.1072 4.37197,79.78062 1.35808,38.19921 2.41557,76.40812 3.51265,114.61543 0.44796,15.60108 1.28743,31.1962 1.32961,46.80366 0.0134,4.95776 -0.32274,9.91031 -0.48411,14.86546 -4.35033,19.33736 -1.54725,18.78411 -33.61251,29.05581 -5.57612,1.78624 -11.56883,-1.83557 -17.3108,-2.98169 -9.13676,-1.82373 -18.18304,-4.0812 -27.31559,-5.92589 -35.98568,-7.2688 -37.78993,-7.12019 -75.39707,-13.05334 -45.93858,-6.16461 -92.07988,-11.55741 -138.38567,-14.08044 -11.44135,-0.62339 -25.053,-0.76931 -36.71072,-0.96698 0,0 22.15475,-15.96403 22.15475,-15.96403 l 0,0 c 57.27577,3.59665 114.2736,10.59628 171.14077,18.20147 59.71471,8.62891 21.02221,2.83404 77.40808,11.73878 9.64904,1.52382 19.24582,3.44874 28.95631,4.51283 5.93405,0.65027 17.2709,-5.31501 17.89791,0.62154 0.70709,6.69469 -9.91103,10.92342 -16.62049,11.473 -3.62672,0.29707 2.23968,-6.92453 3.35952,-10.38679 0.51332,-5.0642 1.25029,-10.1107 1.53996,-15.1926 0.38274,-6.71481 0.87427,-43.9394 0.90612,-47.91282 0.30827,-38.45657 -0.0651,-76.926 -1.8817,-115.34718 -1.79559,-27.34942 -2.56473,-51.03079 -7.15242,-77.93891 -1.24389,-7.29574 -3.99769,-27.07878 -12.40647,-33.97916 -3.74724,-3.07503 -16.48982,-2.55186 -19.89424,-2.65255 -58.65001,-1.4762 -117.31681,-2.46588 -175.98804,-2.10599 -24.64987,0.2805 -47.84635,0.31259 -72.40031,1.41181 -7.77546,0.34808 -15.56119,0.70805 -23.29744,1.56206 -4.29419,0.47404 -15.03368,6.07265 -12.73374,2.41547 3.11205,-4.94853 27.30983,-19.95562 15.67035,-7.87374 -6.94821,32.97945 -6.7624,66.99668 -7.78524,100.52022 -0.4386,29.24508 -1.036,58.49875 -0.66519,87.74862 0.11279,8.89732 0.36067,26.16658 1.5827,36.07023 0.30645,2.48357 1.08396,4.88602 1.62595,7.32903 1.06656,1.25881 1.79077,2.91786 3.19968,3.77642 3.26601,1.99022 9.2455,1.46119 12.55415,1.48491 10.37374,0.0744 20.74801,0.0916 31.12189,0.0365 21.34617,-0.22263 42.75704,-0.30159 64.02603,-2.28166 0,0 -23.95319,17.77045 -23.95319,17.77045 z"
       inkscape:connector-curvature="0" />
    <path
       style="fill:#000000;stroke-width:0.2;stroke-miterlimit:4;stroke-dasharray:none"
       id="path4831"
       d="m 180.93112,383.853 c -2.85564,48.91178 -2.49605,97.92315 -2.18413,146.89249 0.25485,29.89041 0.80805,59.77744 1.60298,89.65815 0.43452,16.33351 0.91763,32.47548 2.68836,48.71349 1.03176,4.06063 1.63944,9.62734 4.98699,12.86561 3.56772,3.45125 10.81309,4.05748 14.90135,4.50368 14.5015,1.58274 30.17853,1.7066 44.6014,2.15618 117.57438,2.46221 235.17887,1.68545 352.7691,2.09511 56.75151,0.33096 113.41026,3.58778 170.05019,6.79111 0,0 -16.99819,12.17401 -16.99819,12.17401 l 0,0 c -55.43925,-4.44344 -110.92219,-8.74913 -166.57993,-9.14622 -22.90803,-0.13571 -45.81566,-0.38791 -68.72408,-0.40712 -96.92958,-0.0813 -193.84358,1.7561 -290.75845,3.15239 -9.18776,3.1e-4 -18.37644,0.13019 -27.56329,9.4e-4 -8.42644,-0.11856 -29.67118,1.32101 -36.91277,-6.83182 -3.4653,-3.90135 -3.71408,-9.77554 -4.58195,-14.47177 -0.7745,-16.74201 -0.41127,-33.39492 -0.27989,-50.15491 0.23618,-30.12868 0.18435,-60.25926 -0.17465,-90.38688 -0.63111,-48.03908 -0.74221,-96.12276 -3.33464,-144.1063 0,0 26.4916,-13.49814 26.4916,-13.49814 z"
       inkscape:connector-curvature="0" />
    <path
       style="fill:#000000;stroke-width:0.2;stroke-miterlimit:4;stroke-dasharray:none"
       id="path4837"
       d="m 308.64203,578.62577 c 0.49607,1.12794 0.85388,2.32743 1.48819,3.38383 2.03716,3.39271 4.84205,6.27865 6.92125,9.64575 5.5574,8.99976 9.3463,18.87745 13.33766,28.62404 5.8685,14.53187 10.45047,29.71491 18.77619,43.09367 0.75491,0.73672 1.26361,1.87787 2.26471,2.21018 0.72123,0.23941 1.43687,-0.49533 2.1553,-0.743 -7.45201,3.93402 -14.62497,8.4495 -22.35603,11.80206 -1.85969,0.80645 3.041,-2.68187 4.52034,-4.06764 11.09272,-10.39108 1.1084,-1.74709 14.72066,-13.04813 3.53077,-2.48916 7.01621,-5.04389 10.5923,-7.46748 8.81953,-5.97717 17.83919,-11.65381 26.72392,-17.53362 12.37005,-8.18634 24.64738,-16.51213 36.9625,-24.78059 7.13975,-4.36011 13.87156,-9.44643 21.1399,-13.60558 3.16414,-1.81061 21.85114,-18.55824 33.63106,-16.26148 0.51956,0.58706 1.2005,1.06384 1.55868,1.76119 1.84324,3.58867 1.09005,8.9816 1.03523,12.77365 -0.0726,5.02419 -0.21524,10.04713 -0.31998,15.07076 -0.28937,7.99946 -0.0223,16.00002 0.3629,23.99 0.0825,1.71043 0.44533,10.14884 0.90532,12.18699 0.32572,1.4432 1.0916,2.75029 1.6374,4.12543 1.23045,0.93037 2.21214,2.35346 3.69134,2.7911 6.94246,2.05401 12.25708,-0.91829 18.539,-3.99694 4.50595,-2.12698 8.72447,-5.01599 12.31997,-8.46563 6.37785,-5.27272 13.57415,-9.46873 20.36123,-14.20309 24.16682,-16.95322 49.24907,-32.53306 74.41333,-47.9442 l 24.92094,-9.62861 0,0 c -25.63413,15.41542 -51.1892,31.01365 -75.66025,48.24402 -27.43621,19.38659 -24.19328,17.66048 -60.8801,39.66402 -7.39727,4.43664 -20.53567,12.27706 -30.19987,13.37515 -2.89662,0.32913 -5.9257,-0.39453 -8.611,-1.52939 -1.86052,-0.78629 -3.02015,-2.6829 -4.53023,-4.02435 -0.62715,-1.64423 -1.5075,-3.21311 -1.88143,-4.9327 -0.42035,-1.93304 -0.62071,-10.86653 -0.6689,-12.48106 -0.24024,-8.04853 -0.50545,-16.10226 -0.32045,-24.15525 -0.0186,-5.86893 -9.7e-4,-9.05085 -0.11774,-14.78114 -0.006,-0.27648 0.0642,-10.22257 -0.91828,-10.35601 -8.74186,1.29918 -47.18649,23.28464 -5.775,-1.10982 1.8646,-1.09838 19.90137,-8.37904 18.05678,-7.24737 -29.27552,18.326 -63.16767,41.31982 -90.84014,59.99287 -6.98615,5.70877 -8.20498,6.27867 -13.96723,12.40072 -1.37605,1.46196 -2.20245,3.52242 -3.90602,4.58483 -1.3014,0.81159 -23.57231,21.37595 -32.60249,14.98947 -1.03172,-0.72967 -1.65196,-1.91271 -2.47794,-2.86907 -7.48162,-14.04101 -11.84345,-29.38648 -17.71334,-44.124 -4.01492,-9.52963 -7.92281,-18.98153 -13.78752,-27.56628 -1.28784,-1.88514 -2.79665,-3.60942 -4.19498,-5.41413 -1.16418,-1.46152 -2.43723,-2.84259 -3.49252,-4.38456 -0.76989,-1.12495 -1.30888,-2.3916 -1.96332,-3.58741 z"
       inkscape:connector-curvature="0"
       sodipodi:nodetypes="cssccscsscsscscssccscscccccccssscsscccsccsssccscscc" />
    <path
       style="fill:#000000;stroke-width:0.2;stroke-miterlimit:4;stroke-dasharray:none"
       id="path4839"
       d="m 217.02883,508.58579 c 32.51064,2.36902 65.14296,2.2913 97.70757,3.48637 11.42045,0.41911 22.83536,0.97722 34.25304,1.46584 58.88491,3.12151 117.65611,8.02487 176.46556,12.28493 17.97096,1.32696 35.95651,2.50501 53.97749,2.78155 10.34776,0.1742 20.69639,0.0204 31.04459,0.0447 0,0 -23.63728,17.18489 -23.63728,17.18489 l 0,0 c -10.39172,0.0891 -20.78687,0.10833 -31.17754,-0.0644 -17.33553,-0.74281 -34.58978,-2.62712 -51.83021,-4.52929 -57.82862,-6.18821 -115.78613,-11.44496 -173.90406,-13.96206 -11.55877,-0.37096 -23.11458,-0.8498 -34.67631,-1.11286 -34.14112,-0.77679 -68.278,0.1105 -102.41957,-0.30528 0,0 24.19672,-17.27442 24.19672,-17.27442 z"
       inkscape:connector-curvature="0" />
    <path
       style="fill:#000000;stroke-width:0.2;stroke-miterlimit:4;stroke-dasharray:none"
       id="path4855"
       d="m 385.37294,485.84417 c 2.65765,13.62498 4.87631,27.32601 7.24697,41.00277 0.33253,2.74021 2.58373,12.0341 6.55382,12.77901 12.94932,-6.03424 -17.9296,9.63754 -18.46606,9.83047 -2.27713,0.79238 3.20213,-3.60544 4.8032,-5.40816 1.5886,-2.49552 3.28101,-4.92791 4.76581,-7.48655 3.12376,-5.38291 5.73261,-11.05027 8.7456,-16.49595 3.80371,-6.87483 7.95188,-13.27019 12.68544,-19.5266 l 26.61225,-11.38204 0,0 c -5.05746,6.08059 -9.40253,12.35593 -13.32835,19.24287 -5.81711,10.20483 -3.06908,6.16898 -8.60555,16.5897 -1.37953,2.59654 -2.89032,5.12119 -4.33548,7.68179 -9.90176,14.49047 -5.09969,9.32017 -33.79565,23.19707 -1.28579,0.62179 -2.96489,-0.0955 -4.21046,-0.79433 -4.68155,-2.62674 -6.14779,-10.12863 -6.8664,-14.72728 -2.19487,-13.55659 -4.22808,-27.15772 -8.11209,-40.36583 z"
       inkscape:connector-curvature="0"
       sodipodi:nodetypes="cccccsscccsscscccc" />
    <path
       style="fill:#000000;stroke-width:0.2;stroke-miterlimit:4;stroke-dasharray:none"
       id="path4859"
       d="m 336.57961,449.4928 c -0.88133,17.00317 -0.8113,34.03658 -0.62552,51.05562 0.053,9.37085 0.15205,18.74139 0.29468,28.11127 0,0 -25.99992,13.24762 -25.99992,13.24762 l 0,0 c 0.14196,-9.47 0.24139,-18.94062 0.29469,-28.41156 0.18144,-16.80623 0.27553,-33.62869 -0.62552,-50.41819 0,0 26.66159,-13.58476 26.66159,-13.58476 z"
       inkscape:connector-curvature="0" />
    <path
       style="fill:#000000;stroke-width:0.2;stroke-miterlimit:4;stroke-dasharray:none"
       id="path4861"
       d="m 516.38676,473.73646 c 0.33448,10.9499 0.86854,21.89669 1.27248,32.84656 0.37193,8.73597 0.54744,17.47739 0.59105,26.22056 0.10166,6.89869 0.33507,13.69552 -1.26047,20.43576 -1.0081,4.43884 -2.06861,8.86112 -2.95525,13.32631 0,0 -26.63852,12.93452 -26.63852,12.93452 l 0,0 c 0.85411,-4.48208 1.88142,-8.91858 2.79889,-13.38595 0.42303,-1.77577 1.02817,-3.50909 1.37003,-5.30226 0.91429,-4.79572 0.0895,-9.74623 0.3541,-14.58143 -0.0119,-8.7831 0.009,-17.56686 -0.15804,-26.34881 -0.28405,-10.87119 -0.6606,-21.76248 -2.03586,-32.5605 0,0 26.66159,-13.58476 26.66159,-13.58476 z"
       inkscape:connector-curvature="0" />
  </g>
</svg>
